%FSTAX23Y23*%
%MOIN*%
%SFA1B1*%

%IPPOS*%
%ADD14C,0.078740*%
%ADD29C,0.015000*%
%ADD30C,0.020000*%
%ADD31C,0.090000*%
%ADD32O,0.079000X0.042000*%
%ADD33C,0.066930*%
%ADD34C,0.060000*%
%ADD35C,0.059060*%
%ADD36R,0.059060X0.059060*%
%ADD37R,0.062990X0.062990*%
%ADD38C,0.062990*%
%ADD39O,0.098430X0.110240*%
%ADD40C,0.090550*%
%ADD41O,0.110240X0.098430*%
%ADD42R,0.060000X0.060000*%
%ADD43C,0.099610*%
%ADD44C,0.039370*%
%LNboard-1*%
%LPD*%
G36*
X0219Y01986D02*
X02186Y01983D01*
X02178Y01973*
X02173Y01962*
X02172Y0195*
X02173Y01937*
X02178Y01926*
X02186Y01916*
X02196Y01908*
X02207Y01903*
X0222Y01902*
X02232Y01903*
X02243Y01908*
X02253Y01916*
X02256Y0192*
X02261Y01918*
Y00081*
X02256Y00079*
X02253Y00083*
X02243Y00091*
X02232Y00096*
X0222Y00097*
X02207Y00096*
X02196Y00091*
X02186Y00083*
X02178Y00073*
X02173Y00062*
X02172Y0005*
X02173Y00037*
X02178Y00026*
X02186Y00016*
X0219Y00013*
X02188Y00008*
X02027*
X02006Y00028*
X02007Y0003*
X02008Y0004*
X02007Y00049*
X02003Y00059*
X01997Y00067*
X01989Y00073*
X01979Y00077*
X0197Y00078*
X0196Y00077*
X01959Y00076*
X01955Y00079*
X01954Y00074*
X0195Y00073*
X01942Y00067*
X01936Y00059*
X01932Y00049*
X01931Y0004*
X01932Y0003*
X01936Y0002*
X01942Y00013*
X01942Y00011*
X01941Y00008*
X00765*
Y00456*
X00794*
X00797Y00457*
X00801Y00458*
X00804Y0046*
X00807Y00463*
X00808Y00466*
X0081Y00469*
X0081Y00473*
Y00508*
X00815Y00509*
X00817Y00506*
X00823Y00498*
X00831Y00492*
X0084Y00488*
X0085Y00487*
X00859Y00488*
X00868Y00492*
X00876Y00498*
X00882Y00506*
X00886Y00515*
X00887Y00525*
X00886Y00534*
X00882Y00543*
X00876Y00551*
X00868Y00557*
X00859Y00561*
X0085Y00562*
X0084Y00561*
X00831Y00557*
X00823Y00551*
X00817Y00543*
X00815Y0054*
X0081Y00541*
Y00608*
X00815Y00609*
X00817Y00606*
X00823Y00598*
X00831Y00592*
X0084Y00588*
X0085Y00587*
X00859Y00588*
X00868Y00592*
X00876Y00598*
X00882Y00606*
X00886Y00615*
X00887Y00625*
X00886Y00634*
X00882Y00643*
X00876Y00651*
X00868Y00657*
X00859Y00661*
X0085Y00662*
X0084Y00661*
X00831Y00657*
X00823Y00651*
X00817Y00643*
X00815Y0064*
X0081Y00641*
Y00676*
X0081Y0068*
X00808Y00683*
X00807Y00686*
X00804Y00689*
X00801Y00691*
X00797Y00692*
X00794Y00693*
X00765*
Y0121*
X0067*
Y01299*
X00704Y01333*
X00705Y01332*
X00715Y01331*
X00716Y01331*
X00774Y01273*
Y00885*
X00775Y00878*
X00778Y00873*
X00814Y00837*
X00813Y00834*
X00812Y00825*
X00813Y00815*
X00817Y00806*
X00823Y00798*
X00831Y00792*
X0084Y00788*
X0085Y00787*
X00859Y00788*
X00868Y00792*
X00876Y00798*
X00882Y00806*
X00886Y00815*
X00887Y00825*
X00886Y00834*
X00882Y00843*
X00876Y00851*
X00868Y00857*
X00859Y00861*
X0085Y00862*
X0084Y00861*
X00837Y0086*
X00805Y00891*
Y01233*
X0081Y01235*
X00813Y01233*
X00812Y01225*
X00813Y01215*
X00817Y01206*
X00823Y01198*
X00831Y01192*
X0084Y01188*
X0085Y01187*
X00858Y01188*
X00862Y01184*
X00863Y0119*
X00868Y01192*
X00876Y01198*
X00882Y01206*
X00886Y01215*
X00887Y01225*
X00886Y01234*
X00882Y01243*
X00876Y01251*
X00868Y01257*
X00859Y01261*
X0085Y01262*
X0084Y01261*
X00831Y01257*
X00823Y01251*
X00817Y01243*
X00815Y01239*
X00809Y01238*
X00805Y01241*
Y0141*
X00804Y01416*
X00801Y01421*
X0075Y01471*
X00752Y01475*
X00753Y01485*
X00752Y01494*
X00748Y01504*
X00742Y01512*
X00734Y01518*
X00724Y01522*
X00715Y01523*
X00705Y01522*
X00695Y01518*
X00687Y01512*
X00681Y01504*
X00677Y01494*
X00676Y01485*
X00677Y01475*
X00681Y01465*
X00687Y01457*
X00695Y01451*
X00705Y01447*
X00715Y01446*
X00724Y01447*
X00728Y01449*
X00774Y01403*
Y0128*
X00769Y01278*
X0072Y01327*
X00722Y01332*
X00724Y01332*
X00734Y01336*
X00742Y01342*
X00748Y0135*
X00752Y0136*
X00753Y0137*
X00752Y01379*
X00748Y01389*
X00742Y01397*
X00734Y01403*
X00724Y01407*
X00715Y01408*
X00705Y01407*
X00704Y01406*
X00618Y01492*
Y01612*
X00717Y01711*
X01737*
X01813Y01635*
X01813Y01634*
X01812Y01625*
X01813Y01615*
X01817Y01606*
X01823Y01598*
X01831Y01592*
X0184Y01588*
X0185Y01587*
X01859Y01588*
X01868Y01592*
X01876Y01598*
X01882Y01606*
X01886Y01615*
X01887Y01625*
X01886Y01634*
X01882Y01643*
X01876Y01651*
X01868Y01657*
X01859Y01661*
X0185Y01662*
X0184Y01661*
X01839Y01661*
X01757Y01742*
X01752Y01746*
X01745Y01748*
X01543*
Y01872*
X01568Y01897*
X0157Y01897*
X01577Y01898*
X01583Y019*
X01589Y01905*
X01594Y01911*
X01596Y01917*
X01597Y01925*
X01596Y01932*
X01594Y01938*
X01589Y01944*
X01583Y01949*
X01577Y01951*
X0157Y01952*
X01562Y01951*
X01556Y01949*
X0155Y01944*
X01545Y01938*
X01543Y01932*
X01542Y01925*
X01542Y01923*
X01512Y01892*
X01508Y01887*
X01506Y0188*
Y01748*
X0071*
X00702Y01746*
X00697Y01742*
X00587Y01632*
X00583Y01627*
X00581Y0162*
Y01485*
X00583Y01477*
X00587Y01472*
X00676Y01382*
X00676Y01379*
X0067Y01377*
X00669Y01379*
X00676Y01371*
X00676Y0137*
X00677Y0136*
X00678Y01359*
X00639Y0132*
X00635Y01314*
X00634Y01307*
Y0121*
X00008*
Y01918*
X00013Y0192*
X00016Y01916*
X00026Y01908*
X00037Y01903*
X0005Y01902*
X00062Y01903*
X00073Y01908*
X00083Y01916*
X00091Y01926*
X00096Y01937*
X00097Y01949*
X00099Y0195*
X00102Y01952*
X00096Y01957*
X00096Y01962*
X00091Y01973*
X00083Y01983*
X00079Y01986*
X00081Y01991*
X02188*
X0219Y01986*
G37*
%LNboard-2*%
%LPC*%
G36*
X0199Y01979D02*
Y0195D01*
X02019*
X02018Y0195*
X02014Y0196*
X02008Y01968*
X02Y01974*
X0199Y01978*
X0199Y01979*
G37*
G36*
X0197D02*
X01969Y01978D01*
X01959Y01974*
X01951Y01968*
X01945Y0196*
X01941Y0195*
X0194Y0195*
X0197*
Y01979*
G37*
G36*
X02019Y0193D02*
X0199D01*
Y019*
X0199Y01901*
X02Y01905*
X02008Y01911*
X02014Y01919*
X02018Y01929*
X02019Y0193*
G37*
G36*
X0197D02*
X0194D01*
X01941Y01929*
X01945Y01919*
X01951Y01911*
X01959Y01905*
X01969Y01901*
X0197Y019*
Y0193*
G37*
G36*
X0036Y01795D02*
X0033D01*
Y01765*
X0036*
Y01795*
G37*
G36*
X0031D02*
X0028D01*
Y01779*
X00275Y01777*
X0028Y01772*
Y01765*
X0031*
Y01795*
G37*
G36*
X0062Y01793D02*
X0061Y01792D01*
X006Y01788*
X00592Y01782*
X00586Y01774*
X00582Y01764*
X00581Y01755*
X00582Y01745*
X00586Y01735*
X00592Y01727*
X006Y01721*
X0061Y01717*
X0062Y01716*
X00629Y01717*
X00639Y01721*
X00647Y01727*
X00653Y01735*
X00657Y01745*
X00658Y01755*
X00657Y01764*
X00653Y01774*
X00647Y01782*
X00639Y01788*
X00629Y01792*
X0062Y01793*
G37*
G36*
X0052D02*
X0051Y01792D01*
X005Y01788*
X00492Y01782*
X00486Y01774*
X00482Y01764*
X00481Y01755*
X00482Y01745*
X00486Y01735*
X00492Y01727*
X005Y01721*
X0051Y01717*
X0052Y01716*
X00529Y01717*
X00539Y01721*
X00547Y01727*
X00553Y01735*
X00557Y01745*
X00558Y01755*
X00557Y01764*
X00553Y01774*
X00547Y01782*
X00539Y01788*
X00529Y01792*
X0052Y01793*
G37*
G36*
X0042D02*
X0041Y01792D01*
X004Y01788*
X00392Y01782*
X00386Y01774*
X00382Y01764*
X00381Y01755*
X00382Y01745*
X00386Y01735*
X00392Y01727*
X004Y01721*
X0041Y01717*
X0042Y01716*
X00429Y01717*
X00439Y01721*
X00447Y01727*
X00453Y01735*
X00457Y01745*
X00458Y01755*
X00457Y01764*
X00453Y01774*
X00447Y01782*
X00439Y01788*
X00429Y01792*
X0042Y01793*
G37*
G36*
X0031Y01745D02*
X0028D01*
Y01715*
X0031*
Y01745*
G37*
G36*
X0085Y01662D02*
X0084Y01661D01*
X00831Y01657*
X00823Y01651*
X00817Y01643*
X00813Y01634*
X00812Y01625*
X00813Y01615*
X00817Y01606*
X00823Y01598*
X00831Y01592*
X0084Y01588*
X0085Y01587*
X00859Y01588*
X00868Y01592*
X00876Y01598*
X00882Y01606*
X00886Y01615*
X00887Y01625*
X00886Y01634*
X00882Y01643*
X00876Y01651*
X00868Y01657*
X00859Y01661*
X0085Y01662*
G37*
G36*
X0036Y01745D02*
X0033D01*
Y01715*
X00337*
X00473Y01577*
X00341Y0171*
X00343Y01715*
X0036*
Y01745*
G37*
G36*
X02165Y01727D02*
X02155Y01725D01*
X02145Y01721*
X02137Y01715*
X02131Y01707*
X02127Y01698*
X02126Y01688*
X02127Y01678*
X02131Y01669*
X02137Y01661*
X02145Y01655*
X02154Y01651*
X02155Y01649*
Y01649*
X02154Y01646*
X02145Y01643*
X02137Y01637*
X02131Y01629*
X02127Y01619*
X02126Y0161*
X02127Y016*
X02131Y0159*
X02137Y01582*
X02145Y01576*
X02155Y01572*
X02165Y01571*
X02174Y01572*
X02184Y01576*
X02192Y01582*
X02198Y0159*
X02202Y016*
X02203Y0161*
X02202Y01619*
X02198Y01629*
X02192Y01637*
X02184Y01643*
X02175Y01646*
X02174Y01649*
Y01649*
X02175Y01651*
X02184Y01655*
X02192Y01661*
X02198Y01669*
X02202Y01678*
X02203Y01688*
X02202Y01698*
X02198Y01707*
X02192Y01715*
X02184Y01721*
X02174Y01725*
X02165Y01727*
G37*
G36*
X00715Y01643D02*
X00705Y01642D01*
X00695Y01638*
X00687Y01632*
X00681Y01624*
X00677Y01614*
X00676Y01605*
X00677Y01595*
X00681Y01585*
X00687Y01577*
X00695Y01571*
X00705Y01567*
X00715Y01566*
X00724Y01567*
X00734Y01571*
X00742Y01577*
X00748Y01585*
X00752Y01595*
X00753Y01605*
X00752Y01614*
X00748Y01624*
X00742Y01632*
X00734Y01638*
X00724Y01642*
X00715Y01643*
G37*
G36*
X00315D02*
X00305Y01642D01*
X00295Y01638*
X00287Y01632*
X00281Y01624*
X00277Y01614*
X00276Y01605*
X00277Y01595*
X00281Y01585*
X00287Y01577*
X00295Y01571*
X00305Y01567*
X00315Y01566*
X00324Y01567*
X00334Y01571*
X00342Y01577*
X00348Y01585*
X00352Y01595*
X00353Y01605*
X00352Y01614*
X00348Y01624*
X00342Y01632*
X00334Y01638*
X00324Y01642*
X00315Y01643*
G37*
G36*
X01889Y01564D02*
X0186D01*
Y01535*
X01889*
Y01564*
G37*
G36*
X00889D02*
X0086D01*
Y01535*
X00889*
Y01564*
G37*
G36*
X0184D02*
X0181D01*
Y01535*
X0184*
Y01564*
G37*
G36*
X0084D02*
X0081D01*
Y01535*
X0084*
Y01564*
G37*
G36*
X0198Y01578D02*
X0197Y01577D01*
X0196Y01573*
X01952Y01567*
X01946Y01559*
X01942Y01549*
X01941Y0154*
X01942Y0153*
X01946Y0152*
X01952Y01512*
X0196Y01506*
X0197Y01502*
X0198Y01501*
X01989Y01502*
X01999Y01506*
X02007Y01512*
X02013Y0152*
X02017Y0153*
X02018Y0154*
X02017Y01549*
X02013Y01559*
X02007Y01567*
X01999Y01573*
X01989Y01577*
X0198Y01578*
G37*
G36*
X00183Y01516D02*
X00175D01*
Y01495*
X00212*
X0021Y015*
X00205Y01507*
X00199Y01512*
X00191Y01515*
X00183Y01516*
G37*
G36*
X00155D02*
X00146D01*
X00138Y01515*
X0013Y01512*
X00124Y01507*
X00119Y015*
X00117Y01495*
X00155*
Y01516*
G37*
G36*
X01889Y01515D02*
X0186D01*
Y01485*
X01889*
Y01515*
G37*
G36*
X0184D02*
X0181D01*
Y01485*
X0184*
Y01515*
G37*
G36*
X00889D02*
X0086D01*
Y01485*
X00889*
Y01515*
G37*
G36*
X0084D02*
X0081D01*
Y01485*
X0084*
Y01515*
G37*
G36*
X00315Y01523D02*
X00305Y01522D01*
X00295Y01518*
X00287Y01512*
X00281Y01504*
X00277Y01494*
X00276Y01485*
X00277Y01475*
X00281Y01465*
X00287Y01457*
X00295Y01451*
X00305Y01447*
X00315Y01446*
X00324Y01447*
X00334Y01451*
X00342Y01457*
X00348Y01465*
X00352Y01475*
X00353Y01485*
X00352Y01494*
X00348Y01504*
X00342Y01512*
X00334Y01518*
X00324Y01522*
X00315Y01523*
G37*
G36*
X02195Y01478D02*
X02185Y01477D01*
X02175Y01473*
X02167Y01467*
X02161Y01459*
X02157Y01449*
X02156Y0144*
X02157Y0143*
X02161Y0142*
X02167Y01412*
X02175Y01406*
X02185Y01402*
X02195Y01401*
X02204Y01402*
X02214Y01406*
X02222Y01412*
X02228Y0142*
X02232Y0143*
X02233Y0144*
X02232Y01449*
X02228Y01459*
X02222Y01467*
X02214Y01473*
X02204Y01477*
X02195Y01478*
G37*
G36*
X0185Y01462D02*
X0184Y01461D01*
X01831Y01457*
X01823Y01451*
X01817Y01443*
X01813Y01434*
X01812Y01425*
X01813Y01415*
X01817Y01406*
X01823Y01398*
X01831Y01392*
X0184Y01388*
X0185Y01387*
X01859Y01388*
X01868Y01392*
X01876Y01398*
X01882Y01406*
X01886Y01415*
X01887Y01425*
X01886Y01434*
X01882Y01443*
X01876Y01451*
X01868Y01457*
X01859Y01461*
X0185Y01462*
G37*
G36*
X0085D02*
X0084Y01461D01*
X00831Y01457*
X00823Y01451*
X00817Y01443*
X00813Y01434*
X00812Y01425*
X00813Y01415*
X00817Y01406*
X00823Y01398*
X00831Y01392*
X0084Y01388*
X0085Y01387*
X00859Y01388*
X00868Y01392*
X00876Y01398*
X00882Y01406*
X00886Y01415*
X00887Y01425*
X00886Y01434*
X00882Y01443*
X00876Y01451*
X00868Y01457*
X00859Y01461*
X0085Y01462*
G37*
G36*
X00165Y01485D02*
D01*
Y01475*
X00117*
X00119Y01469*
X00124Y01462*
X00126Y01461*
Y01456*
X00125Y01455*
X00121Y01449*
X00118Y01442*
X00117Y01435*
X00118Y01427*
X00121Y0142*
X00125Y01414*
X00128Y01412*
Y01407*
X00125Y01405*
X00121Y01399*
X00118Y01392*
X00117Y01385*
X00118Y01377*
X00121Y0137*
X00125Y01364*
X00131Y01359*
X00138Y01356*
X00146Y01355*
X00183*
X00191Y01356*
X00198Y01359*
X00204Y01364*
X00208Y0137*
X00211Y01377*
X00212Y01385*
X00211Y01392*
X00208Y01399*
X00204Y01405*
X00201Y01407*
Y01412*
X00204Y01414*
X00208Y0142*
X00211Y01427*
X00212Y01435*
X00211Y01442*
X00208Y01449*
X00204Y01455*
X00203Y01456*
Y01461*
X00205Y01462*
X0021Y01469*
X00212Y01475*
X00165*
Y01485*
G37*
G36*
X00315Y01408D02*
X00305Y01407D01*
X00295Y01403*
X00287Y01397*
X00281Y01389*
X00277Y01379*
X00276Y0137*
X00277Y0136*
X00281Y0135*
X00287Y01342*
X00295Y01336*
X00305Y01332*
X00315Y01331*
X00324Y01332*
X00334Y01336*
X00342Y01342*
X00348Y0135*
X00352Y0136*
X00353Y0137*
X00352Y01379*
X00348Y01389*
X00342Y01397*
X00334Y01403*
X00324Y01407*
X00315Y01408*
G37*
G36*
X0185Y01362D02*
X0184Y01361D01*
X01831Y01357*
X01823Y01351*
X01817Y01343*
X01813Y01334*
X01812Y01325*
X01813Y01315*
X01817Y01306*
X01823Y01298*
X01831Y01292*
X0184Y01288*
X0185Y01287*
X01859Y01288*
X01868Y01292*
X01876Y01298*
X01882Y01306*
X01886Y01315*
X01887Y01325*
X01886Y01334*
X01882Y01343*
X01876Y01351*
X01868Y01357*
X01859Y01361*
X0185Y01362*
G37*
G36*
X0085D02*
X0084Y01361D01*
X00831Y01357*
X00823Y01351*
X00817Y01343*
X00813Y01334*
X00812Y01325*
X00813Y01315*
X00817Y01306*
X00823Y01298*
X00831Y01292*
X0084Y01288*
X0085Y01287*
X00859Y01288*
X00868Y01292*
X00876Y01298*
X00882Y01306*
X00886Y01315*
X00887Y01325*
X00886Y01334*
X00882Y01343*
X00876Y01351*
X00868Y01357*
X00859Y01361*
X0085Y01362*
G37*
G36*
X0185Y01262D02*
X0184Y01261D01*
X01831Y01257*
X01823Y01251*
X01817Y01243*
X01813Y01234*
X01812Y01225*
X01813Y01215*
X01817Y01206*
X01823Y01198*
X01831Y01192*
X0184Y01188*
X0185Y01187*
X01859Y01188*
X01868Y01192*
X01876Y01198*
X01882Y01206*
X01886Y01215*
X01887Y01225*
X01886Y01234*
X01882Y01243*
X01876Y01251*
X01868Y01257*
X01859Y01261*
X0185Y01262*
G37*
G36*
X00883Y01162D02*
X00885Y01161D01*
X00883Y01162*
G37*
G36*
X0091Y01136D02*
X00911Y01134D01*
X0091Y01136*
G37*
G36*
X00947Y01098D02*
X00953Y01092D01*
X00947Y01098*
G37*
G36*
X0085Y01162D02*
X0084Y01161D01*
X00831Y01157*
X00823Y01151*
X00817Y01143*
X00813Y01134*
X00812Y01125*
X00813Y01115*
X00817Y01106*
X00823Y01098*
X00831Y01092*
X0084Y01088*
X0085Y01087*
X00859Y01088*
X00868Y01092*
X00876Y01098*
X00882Y01106*
X00886Y01115*
X00887Y01125*
X00886Y01134*
X00882Y01143*
X00876Y01151*
X00868Y01157*
X00859Y01161*
X0085Y01162*
G37*
G36*
X0097Y01075D02*
X00972Y01073D01*
X0097Y01075*
G37*
G36*
X01024Y0102D02*
X01029Y01015D01*
X01024Y0102*
G37*
G36*
X0185Y01062D02*
X0184Y01061D01*
X01831Y01057*
X01823Y01051*
X01817Y01043*
X01813Y01034*
X01812Y01025*
X01813Y01015*
X01817Y01006*
X01823Y00998*
X01831Y00992*
X0184Y00988*
X0185Y00987*
X01859Y00988*
X01868Y00992*
X01876Y00998*
X01882Y01006*
X01886Y01015*
X01887Y01025*
X01886Y01034*
X01882Y01043*
X01876Y01051*
X01868Y01057*
X01859Y01061*
X0185Y01062*
G37*
G36*
X0085D02*
X0084Y01061D01*
X00831Y01057*
X00823Y01051*
X00817Y01043*
X00813Y01034*
X00812Y01025*
X00813Y01015*
X00817Y01006*
X00823Y00998*
X00831Y00992*
X0084Y00988*
X0085Y00987*
X00859Y00988*
X00868Y00992*
X00876Y00998*
X00882Y01006*
X00886Y01015*
X00887Y01025*
X00886Y01034*
X00882Y01043*
X00876Y01051*
X00868Y01057*
X00859Y01061*
X0085Y01062*
G37*
G36*
X01119Y00925D02*
X01128Y00915D01*
X01119Y00925*
G37*
G36*
X0185Y00962D02*
X0184Y00961D01*
X01831Y00957*
X01823Y00951*
X01817Y00943*
X01813Y00934*
X01812Y00925*
X01813Y00915*
X01817Y00906*
X01823Y00898*
X01831Y00892*
X0184Y00888*
X0185Y00887*
X01859Y00888*
X01868Y00892*
X01876Y00898*
X01882Y00906*
X01886Y00915*
X01887Y00925*
X01886Y00934*
X01882Y00943*
X01876Y00951*
X01868Y00957*
X01859Y00961*
X0185Y00962*
G37*
G36*
X0085D02*
X0084Y00961D01*
X00831Y00957*
X00823Y00951*
X00817Y00943*
X00813Y00934*
X00812Y00925*
X00813Y00915*
X00817Y00906*
X00823Y00898*
X00831Y00892*
X0084Y00888*
X0085Y00887*
X00859Y00888*
X00868Y00892*
X00876Y00898*
X00882Y00906*
X00886Y00915*
X00887Y00925*
X00886Y00934*
X00882Y00943*
X00876Y00951*
X00868Y00957*
X00859Y00961*
X0085Y00962*
G37*
G36*
X01219Y00824D02*
X01227Y00815D01*
X01219Y00824*
G37*
G36*
X01236Y00806D02*
X01237Y00805D01*
X01236Y00806*
G37*
G36*
X0185Y01162D02*
X0184Y01161D01*
X01831Y01157*
X01823Y01151*
X01817Y01143*
X01813Y01134*
X01812Y01125*
X01813Y01115*
X01817Y01106*
X01823Y01098*
X01831Y01092*
X0184Y01088*
X0185Y01087*
X01859Y01088*
X01868Y01092*
X01876Y01098*
X01882Y01106*
X01884Y01109*
X02103*
X02152Y0106*
X0215Y01055*
X02115*
X02108Y01054*
X02103Y01051*
X02005Y00952*
X02001Y00947*
X02Y00941*
Y00871*
X01999Y00871*
X0199Y00864*
X01983Y00855*
X01979Y00845*
X01978Y00835*
X01979Y00824*
X01983Y00814*
X0199Y00805*
X01999Y00798*
X02009Y00794*
X0202Y00793*
X0203Y00794*
X0204Y00798*
X02049Y00805*
X02056Y00814*
X0206Y00824*
X02061Y00835*
X0206Y00845*
X02056Y00855*
X02049Y00864*
X0204Y00871*
X02032Y00874*
Y00934*
X02121Y01024*
X0216*
X02161Y0102*
X02167Y01012*
X02175Y01006*
X0218Y01004*
Y00872*
X02176Y00871*
X02167Y00864*
X0216Y00855*
X02156Y00845*
X02155Y00835*
X02156Y00824*
X0216Y00814*
X02167Y00805*
X02176Y00798*
X02186Y00794*
X02197Y00793*
X02207Y00794*
X02218Y00798*
X02226Y00805*
X02233Y00814*
X02237Y00824*
X02238Y00835*
X02237Y00845*
X02233Y00855*
X02226Y00864*
X02218Y00871*
X02211Y00873*
Y01005*
X02214Y01006*
X02222Y01012*
X02228Y0102*
X02232Y0103*
X02233Y0104*
X02232Y01049*
X02228Y01059*
X02222Y01067*
X02214Y01073*
X02204Y01077*
X02195Y01078*
X02185Y01077*
X02181Y01075*
X02121Y01136*
X02116Y01139*
X0211Y0114*
X01884*
X01882Y01143*
X01876Y01151*
X01868Y01157*
X01859Y01161*
X0185Y01162*
G37*
G36*
Y00862D02*
X0184Y00861D01*
X01831Y00857*
X01823Y00851*
X01817Y00843*
X01813Y00834*
X01812Y00825*
X01813Y00815*
X01817Y00806*
X01823Y00798*
X01831Y00792*
X0184Y00788*
X0185Y00787*
X01859Y00788*
X01868Y00792*
X01876Y00798*
X01882Y00806*
X01886Y00815*
X01887Y00825*
X01886Y00834*
X01882Y00843*
X01876Y00851*
X01868Y00857*
X01859Y00861*
X0185Y00862*
G37*
G36*
X01317Y00725D02*
X01326Y00715D01*
X01317Y00725*
G37*
G36*
X0185Y00762D02*
X0184Y00761D01*
X01831Y00757*
X01823Y00751*
X01817Y00743*
X01813Y00734*
X01812Y00725*
X01813Y00715*
X01817Y00706*
X01823Y00698*
X01831Y00692*
X0184Y00688*
X0185Y00687*
X01859Y00688*
X01868Y00692*
X01876Y00698*
X01882Y00706*
X01886Y00715*
X01887Y00725*
X01886Y00734*
X01882Y00743*
X01876Y00751*
X01868Y00757*
X01859Y00761*
X0185Y00762*
G37*
G36*
X0085D02*
X0084Y00761D01*
X00831Y00757*
X00823Y00751*
X00817Y00743*
X00813Y00734*
X00812Y00725*
X00813Y00715*
X00817Y00706*
X00823Y00698*
X00831Y00692*
X0084Y00688*
X0085Y00687*
X00859Y00688*
X00868Y00692*
X00876Y00698*
X00882Y00706*
X00886Y00715*
X00887Y00725*
X00886Y00734*
X00882Y00743*
X00876Y00751*
X00868Y00757*
X00859Y00761*
X0085Y00762*
G37*
G36*
X01355Y00686D02*
X01358Y00683D01*
X01355Y00686*
G37*
G36*
X0138Y00661D02*
X01383Y00657D01*
X0138Y00661*
G37*
G36*
X01419Y00621D02*
D01*
G37*
G36*
X01424Y00617D02*
X01425Y00615D01*
X01424Y00617*
G37*
G36*
X01432Y00609D02*
X01433Y00608D01*
X01432Y00609*
G37*
G36*
X0145Y0059D02*
X01451Y00589D01*
X0145Y0059*
G37*
G36*
X02207Y00621D02*
Y00589D01*
X02239*
X02239Y0059*
X02235Y00601*
X02228Y0061*
X02219Y00617*
X02208Y00621*
X02207Y00621*
G37*
G36*
X0203D02*
Y00589D01*
X02062*
X02062Y0059*
X02057Y00601*
X02051Y0061*
X02041Y00617*
X02031Y00621*
X0203Y00621*
G37*
G36*
X01451Y00589D02*
D01*
G37*
G36*
X02187Y00621D02*
X02185Y00621D01*
X02175Y00617*
X02166Y0061*
X02159Y00601*
X02154Y0059*
X02154Y00589*
X02187*
Y00621*
G37*
G36*
X0201D02*
X02008Y00621D01*
X01998Y00617*
X01989Y0061*
X01982Y00601*
X01977Y0059*
X01977Y00589*
X0201*
Y00621*
G37*
G36*
X0185Y00662D02*
X0184Y00661D01*
X01831Y00657*
X01823Y00651*
X01817Y00643*
X01813Y00634*
X01812Y00625*
X01813Y00615*
X01817Y00606*
X01823Y00598*
X01831Y00592*
X0184Y00588*
X0185Y00587*
X01859Y00588*
X01868Y00592*
X01876Y00598*
X01882Y00606*
X01886Y00615*
X01887Y00625*
X01886Y00634*
X01882Y00643*
X01876Y00651*
X01868Y00657*
X01859Y00661*
X0185Y00662*
G37*
G36*
X01453Y00587D02*
X01471Y00569D01*
X01453Y00587*
G37*
G36*
X01471Y00569D02*
D01*
G37*
G36*
X01479Y00561D02*
X01483Y00557D01*
X01479Y00561*
G37*
G36*
X01488Y00551D02*
X01492Y00548D01*
X01488Y00551*
G37*
G36*
X02239Y00569D02*
X02207D01*
Y00536*
X02208Y00536*
X02219Y00541*
X02228Y00548*
X02235Y00557*
X02239Y00567*
X02239Y00569*
G37*
G36*
X02062D02*
X0203D01*
Y00536*
X02031Y00536*
X02041Y00541*
X02051Y00548*
X02057Y00557*
X02062Y00567*
X02062Y00569*
G37*
G36*
X02187D02*
X02154D01*
X02154Y00567*
X02159Y00557*
X02166Y00548*
X02175Y00541*
X02185Y00536*
X02187Y00536*
Y00569*
G37*
G36*
X0201D02*
X01977D01*
X01977Y00567*
X01982Y00557*
X01989Y00548*
X01998Y00541*
X02008Y00536*
X0201Y00536*
Y00569*
G37*
G36*
X01503Y00536D02*
X01503Y00536D01*
X01503Y00536*
G37*
G36*
X01515Y00525D02*
X01524Y00515D01*
X01515Y00525*
G37*
G36*
X01531Y00509D02*
X01532Y00508D01*
X01531Y00509*
G37*
G36*
X0185Y00562D02*
X0184Y00561D01*
X01831Y00557*
X01823Y00551*
X01817Y00543*
X01813Y00534*
X01812Y00525*
X01813Y00515*
X01817Y00506*
X01823Y00498*
X01831Y00492*
X0184Y00488*
X0185Y00487*
X01859Y00488*
X01868Y00492*
X01876Y00498*
X01882Y00506*
X01886Y00515*
X01887Y00525*
X01886Y00534*
X01882Y00543*
X01876Y00551*
X01868Y00557*
X01859Y00561*
X0185Y00562*
G37*
G36*
X01552Y00487D02*
X01561Y00478D01*
X01552Y00487*
G37*
G36*
X01562Y00477D02*
X01566Y00473D01*
X01562Y00477*
G37*
G36*
X01573Y00466D02*
X01576Y00463D01*
X01573Y00466*
G37*
G36*
X01578Y00461D02*
X01578Y0046D01*
X01578Y00461*
G37*
G36*
X0158Y00458D02*
X01581Y00457D01*
X0158Y00458*
G37*
G36*
X01614Y00425D02*
X01614Y00424D01*
X01614Y00425*
G37*
G36*
X01618Y0042D02*
X01623Y00415D01*
X01618Y0042*
G37*
G36*
X01632Y00406D02*
X01634Y00404D01*
X01632Y00406*
G37*
G36*
X0197Y00478D02*
X0196Y00477D01*
X0195Y00473*
X01942Y00467*
X01936Y00459*
X01932Y00449*
X01931Y0044*
X01932Y0043*
X01936Y0042*
X01942Y00412*
X0195Y00406*
X0196Y00402*
X0197Y00401*
X01979Y00402*
X01989Y00406*
X01997Y00412*
X02003Y0042*
X02007Y0043*
X02008Y0044*
X02007Y00449*
X02003Y00459*
X01997Y00467*
X01989Y00473*
X01979Y00477*
X0197Y00478*
G37*
G36*
X0185Y00462D02*
X0184Y00461D01*
X01831Y00457*
X01823Y00451*
X01817Y00443*
X01813Y00434*
X01812Y00425*
X01813Y00415*
X01817Y00406*
X01823Y00398*
X01831Y00392*
X0184Y00388*
X0185Y00387*
X01859Y00388*
X01868Y00392*
X01876Y00398*
X01882Y00406*
X01886Y00415*
X01887Y00425*
X01886Y00434*
X01882Y00443*
X01876Y00451*
X01868Y00457*
X01859Y00461*
X0185Y00462*
G37*
G36*
X0085D02*
X0084Y00461D01*
X00831Y00457*
X00823Y00451*
X00817Y00443*
X00813Y00434*
X00812Y00425*
X00813Y00415*
X00817Y00406*
X00823Y00398*
X00831Y00392*
X0084Y00388*
X0085Y00387*
X00859Y00388*
X00868Y00392*
X00876Y00398*
X00882Y00406*
X00886Y00415*
X00887Y00425*
X00886Y00434*
X00882Y00443*
X00876Y00451*
X00868Y00457*
X00859Y00461*
X0085Y00462*
G37*
G36*
X01653Y00385D02*
X01664Y00374D01*
X01653Y00385*
G37*
G36*
X01673Y00365D02*
X01675Y00362D01*
X01673Y00365*
G37*
G36*
X01677Y00361D02*
X01681Y00356D01*
X01677Y00361*
G37*
G36*
X0214Y00424D02*
X02129Y00423D01*
X0212Y00419*
X02111Y00413*
X02105Y00404*
X02101Y00395*
X021Y00385*
X02101Y00374*
X02105Y00365*
X02111Y00356*
X0212Y0035*
X02129Y00346*
X0214Y00345*
X0215Y00346*
X02159Y0035*
X02168Y00356*
X02174Y00365*
X02178Y00374*
X02179Y00385*
X02178Y00395*
X02174Y00404*
X02168Y00413*
X02159Y00419*
X0215Y00423*
X0214Y00424*
G37*
G36*
X01713Y00325D02*
X01722Y00315D01*
X01713Y00325*
G37*
G36*
X02181Y00326D02*
X0215D01*
Y00295*
X02181*
Y00326*
G37*
G36*
X01742Y00295D02*
D01*
G37*
G36*
X0213Y00326D02*
X02098D01*
Y00295*
X0213*
Y00326*
G37*
G36*
X0185Y00362D02*
X0184Y00361D01*
X01831Y00357*
X01823Y00351*
X01817Y00343*
X01813Y00334*
X01812Y00325*
X01813Y00315*
X01817Y00306*
X01823Y00298*
X01831Y00292*
X0184Y00288*
X0185Y00287*
X01859Y00288*
X01868Y00292*
X01876Y00298*
X01882Y00306*
X01886Y00315*
X01887Y00325*
X01886Y00334*
X01882Y00343*
X01876Y00351*
X01868Y00357*
X01859Y00361*
X0185Y00362*
G37*
G36*
X0085D02*
X0084Y00361D01*
X00831Y00357*
X00823Y00351*
X00817Y00343*
X00813Y00334*
X00812Y00325*
X00813Y00315*
X00817Y00306*
X00823Y00298*
X00831Y00292*
X0084Y00288*
X0085Y00287*
X00859Y00288*
X00868Y00292*
X00876Y00298*
X00882Y00306*
X00886Y00315*
X00887Y00325*
X00886Y00334*
X00882Y00343*
X00876Y00351*
X00868Y00357*
X00859Y00361*
X0085Y00362*
G37*
G36*
X0175Y00287D02*
X01762Y00275D01*
X0175Y00287*
G37*
G36*
X01762Y00275D02*
X01774Y00262D01*
X01762Y00275*
G37*
G36*
X01776Y00261D02*
X01779Y00257D01*
X01776Y00261*
G37*
G36*
X01785Y00251D02*
X01793Y00243D01*
X01785Y00251*
G37*
G36*
X02181Y00275D02*
X0215D01*
Y00243*
X02181*
Y00275*
G37*
G36*
X0213D02*
X02098D01*
Y00243*
X0213*
Y00275*
G37*
G36*
X01802Y00234D02*
X01806Y0023D01*
X01802Y00234*
G37*
G36*
X0085Y00262D02*
X0084Y00261D01*
X00831Y00257*
X00823Y00251*
X00817Y00243*
X00813Y00234*
X00812Y00225*
X00813Y00215*
X00817Y00206*
X00823Y00198*
X00831Y00192*
X0084Y00188*
X0085Y00187*
X00859Y00188*
X00868Y00192*
X00876Y00198*
X00882Y00206*
X00886Y00215*
X00887Y00225*
X00886Y00234*
X00882Y00243*
X00876Y00251*
X00868Y00257*
X00859Y00261*
X0085Y00262*
G37*
G36*
X0185D02*
X0184Y00261D01*
X01831Y00257*
X01823Y00251*
X01817Y00243*
X01813Y00234*
X01812Y0023*
X01808Y00229*
X01812Y00225*
X01812Y00225*
X01813Y00215*
X01817Y00206*
X01823Y00198*
X01831Y00192*
X0184Y00188*
X01849Y00187*
X01854Y00182*
X01855Y00187*
X01859Y00188*
X01868Y00192*
X01876Y00198*
X01882Y00206*
X01886Y00215*
X01887Y00225*
X01886Y00234*
X01882Y00243*
X01876Y00251*
X01868Y00257*
X01859Y00261*
X0185Y00262*
G37*
%LNboard-3*%
%LPD*%
G54D14*
X0005Y0195D03*
X0222D03*
Y0005D03*
X0005D03*
G54D29*
X02195Y0104D02*
X02196Y01038D01*
Y00836D02*
Y01038D01*
Y00836D02*
X02197Y00835D01*
X0185Y01125D02*
X0211D01*
X02195Y0104*
X02016Y00941D02*
X02115Y0104D01*
X02016Y00838D02*
X0202Y00835D01*
X02016Y00838D02*
Y00941D01*
X02115Y0104D02*
X02195D01*
X0079Y00885D02*
X0085Y00825D01*
X0079Y00885D02*
Y0141D01*
X00715Y01485D02*
X0079Y0141D01*
G54D30*
X01525Y0173D02*
X01745D01*
X0071D02*
X01525D01*
Y0188D02*
X0157Y01925D01*
X01525Y0173D02*
Y0188D01*
X00652Y0105D02*
Y01307D01*
X00715Y0137*
X006Y01485D02*
X00715Y0137D01*
X006Y0162D02*
X0071Y0173D01*
X006Y01485D02*
Y0162D01*
X01745Y0173D02*
X0185Y01625D01*
G54D31*
X0018Y00242D02*
X00212Y0021D01*
X0018Y00242D02*
Y00569D01*
X00605Y0021D02*
Y00523D01*
X00652Y00569*
G54D32*
X00165Y01485D03*
Y01435D03*
Y01385D03*
G54D33*
X0202Y00835D03*
Y00579D03*
X02197D03*
Y00835D03*
G54D34*
X02195Y0104D03*
Y0144D03*
X00715Y01485D03*
X00315D03*
X00715Y01605D03*
X00315D03*
X0198Y0154D03*
Y0194D03*
X0197Y0044D03*
Y0004D03*
X02165Y0161D03*
Y01688D03*
X00715Y0137D03*
X00315D03*
X0062Y01755D03*
X0052D03*
X0042D03*
G54D35*
X0085Y00225D03*
Y00325D03*
Y00425D03*
Y00525D03*
Y00625D03*
Y00725D03*
Y00825D03*
Y00925D03*
Y01025D03*
Y01125D03*
Y01225D03*
Y01325D03*
Y01425D03*
X0185Y00325D03*
Y00425D03*
Y00525D03*
Y00625D03*
Y00725D03*
Y00825D03*
Y00925D03*
Y01025D03*
Y01125D03*
Y01225D03*
Y01325D03*
Y01425D03*
X0085Y01625D03*
X0185D03*
Y00225D03*
G54D36*
X0085Y01525D03*
X0185D03*
G54D37*
X0214Y00285D03*
G54D38*
X0214Y00385D03*
G54D39*
X00652Y00569D03*
X0018D03*
G54D40*
X0018Y0105D03*
X00652D03*
G54D41*
X00416Y01128D03*
G54D42*
X0032Y01755D03*
G54D43*
X0041Y0021D03*
X00212D03*
X00605D03*
G54D44*
X0157Y01925D03*
M02*