%FSTAX23Y23*%
%MOIN*%
%SFA1B1*%

%IPPOS*%
%ADD15C,0.086740*%
%ADD16O,0.083000X0.046000*%
%ADD17C,0.074930*%
%ADD18C,0.068000*%
%ADD19C,0.067060*%
%ADD20R,0.067060X0.067060*%
%ADD21R,0.070990X0.070990*%
%ADD22C,0.070990*%
%ADD23O,0.129920X0.141730*%
%ADD24C,0.098550*%
%ADD25O,0.141730X0.129920*%
%ADD26R,0.068000X0.068000*%
%ADD27C,0.107610*%
%ADD28C,0.047370*%
%LNboard-1*%
%LPD*%
G36*
X00332Y00326D02*
X00332Y00326D01*
X00336Y00325*
X00336Y00325*
X00337Y00324*
X00337Y00324*
X00339Y00322*
X0034Y00321*
X0034Y00321*
X0034Y00321*
X00341Y00317*
X00341Y00317*
X00342Y00316*
Y00315*
Y00115*
Y00113*
X00341Y00112*
X00341Y00112*
X0034Y00108*
X0034Y00108*
X00339Y00107*
X00339Y00107*
X00337Y00105*
X00336Y00104*
X00336Y00104*
X00336Y00104*
X00332Y00103*
X00332Y00103*
X00331Y00102*
X00288*
X00287Y00103*
X00287Y00103*
X00283Y00104*
X00283Y00104*
X00282Y00105*
X0028Y00107*
X00279Y00108*
X00279Y00108*
X00279Y00108*
X00278Y00112*
X00278Y00112*
X00277Y00113*
Y00115*
Y00315*
Y00316*
X00278Y00317*
X00278Y00317*
X00279Y00321*
X00279Y00321*
X0028Y00322*
X00282Y00324*
X00283Y00325*
X00283Y00325*
X00283Y00325*
X00287Y00326*
X00287Y00326*
X00288Y00327*
X00331*
X00332Y00326*
G37*
G36*
X0053D02*
X0053Y00326D01*
X00534Y00325*
X00534Y00325*
X00534Y00324*
X00534Y00324*
X00537Y00322*
X00537Y00321*
X00537Y00321*
X00538Y00321*
X00539Y00317*
X00539Y00317*
X00539Y00316*
Y00315*
Y00115*
Y00113*
X00539Y00112*
X00539Y00112*
X00538Y00108*
X00537Y00108*
X00537Y00107*
X00537Y00107*
X00534Y00105*
X00534Y00104*
X00534Y00104*
X00534Y00104*
X0053Y00103*
X0053Y00103*
X00529Y00102*
X00485*
X00485Y00103*
X00485Y00103*
X00481Y00104*
X00481Y00104*
X0048Y00105*
X00477Y00107*
X00477Y00108*
X00477Y00108*
X00477Y00108*
X00475Y00112*
X00475Y00112*
X00475Y00113*
Y00115*
Y00315*
Y00316*
X00475Y00317*
X00475Y00317*
X00477Y00321*
X00477Y00321*
X00477Y00322*
X0048Y00324*
X0048Y00325*
X00481Y00325*
X00481Y00325*
X00485Y00326*
X00485Y00326*
X00485Y00327*
X00529*
X0053Y00326*
G37*
G36*
X00726D02*
X00726Y00326D01*
X0073Y00325*
X0073Y00325*
X0073Y00324*
X0073Y00324*
X00733Y00322*
X00733Y00321*
X00733Y00321*
X00734Y00321*
X00735Y00317*
X00735Y00317*
X00735Y00316*
Y00315*
Y00115*
Y00113*
X00735Y00112*
X00735Y00112*
X00734Y00108*
X00733Y00108*
X00733Y00107*
X00733Y00107*
X0073Y00105*
X0073Y00104*
X0073Y00104*
X0073Y00104*
X00726Y00103*
X00726Y00103*
X00725Y00102*
X00681*
X00681Y00103*
X0068Y00103*
X00677Y00104*
X00676Y00104*
X00676Y00105*
X00673Y00107*
X00673Y00108*
X00673Y00108*
X00673Y00108*
X00671Y00112*
X00671Y00112*
X00671Y00113*
Y00115*
Y00315*
Y00316*
X00671Y00317*
X00671Y00317*
X00673Y00321*
X00673Y00321*
X00673Y00322*
X00676Y00324*
X00676Y00325*
X00676Y00325*
X00677Y00325*
X0068Y00326*
X00681Y00326*
X00681Y00327*
X00725*
X00726Y00326*
G37*
G36*
X0057Y01181D02*
X0057Y01181D01*
X00574Y0118*
X00574Y0118*
X00574Y01179*
X00574Y01179*
X00577Y01177*
X00577Y01176*
X00577Y01176*
X00578Y01176*
X00579Y01172*
X00579Y01172*
X00579Y01171*
Y0117*
Y0097*
Y00968*
X00579Y00967*
X00579Y00967*
X00578Y00963*
X00577Y00963*
X00577Y00962*
X00577Y00962*
X00574Y0096*
X00574Y00959*
X00574Y00959*
X00574Y00959*
X0057Y00958*
X0057Y00958*
X00569Y00957*
X00525*
X00525Y00958*
X00525Y00958*
X00521Y00959*
X00521Y00959*
X0052Y0096*
X00517Y00962*
X00517Y00963*
X00517Y00963*
X00517Y00963*
X00515Y00967*
X00515Y00967*
X00515Y00968*
Y0097*
Y0117*
Y01171*
X00515Y01172*
X00515Y01172*
X00517Y01176*
X00517Y01176*
X00517Y01177*
X0052Y01179*
X0052Y0118*
X00521Y0118*
X00521Y0118*
X00525Y01181*
X00525Y01181*
X00525Y01182*
X00569*
X0057Y01181*
G37*
G36*
X00306D02*
X00307Y01181D01*
X00311Y0118*
X00311Y0118*
X00311Y0118*
X00311Y01179*
X00314Y01177*
X00314Y01177*
X00314Y01176*
X00314Y01176*
X00316Y01172*
X00316Y01172*
X00316Y01171*
Y0117*
Y0097*
Y00968*
X00316Y00967*
X00316Y00967*
X00314Y00963*
X00314Y00963*
X00314Y00963*
X00314Y00962*
X00311Y0096*
X00311Y00959*
X00311Y00959*
X00307Y00958*
X00306Y00958*
X00306Y00957*
X00262*
X00262Y00958*
X00261Y00958*
X00258Y00959*
X00257Y00959*
X00257Y00959*
X00257Y0096*
X00254Y00962*
X00254Y00963*
X00254Y00963*
X00252Y00967*
X00252Y00967*
X00252Y00968*
Y0097*
Y0117*
Y01171*
X00252Y01172*
X00252Y01172*
X00254Y01176*
X00254Y01176*
X00254Y01176*
X00254Y01177*
X00257Y01179*
X00257Y01179*
X00257Y0118*
X00258Y0118*
X00261Y01181*
X00262Y01181*
X00262Y01182*
X00306*
X00306Y01181*
G37*
G36*
X00795Y00686D02*
X00795Y00686D01*
X00799Y00685*
X00799Y00685*
X00799Y00684*
X00799Y00684*
X00802Y00682*
X00802Y00681*
X00802Y00681*
X00803Y00681*
X00804Y00677*
X00804Y00677*
X00804Y00676*
Y00675*
Y00475*
Y00473*
X00804Y00472*
X00804Y00472*
X00803Y00468*
X00802Y00468*
X00802Y00467*
X00802Y00467*
X00799Y00465*
X00799Y00464*
X00799Y00464*
X00799Y00464*
X00795Y00463*
X00795Y00463*
X00794Y00462*
X0075*
X0075Y00463*
X0075Y00463*
X00746Y00464*
X00746Y00464*
X00745Y00465*
X00742Y00467*
X00742Y00468*
X00742Y00468*
X00742Y00468*
X0074Y00472*
X0074Y00472*
X0074Y00473*
Y00475*
Y00675*
Y00676*
X0074Y00677*
X0074Y00677*
X00742Y00681*
X00742Y00681*
X00742Y00682*
X00745Y00684*
X00745Y00685*
X00746Y00685*
X00746Y00685*
X0075Y00686*
X0075Y00686*
X0075Y00687*
X00794*
X00795Y00686*
G37*
G54D15*
X00055Y0142D03*
X0007Y0128D03*
X02075Y01355D03*
X01765Y01935D03*
X00075Y01695D03*
X00945Y01935D03*
X0005Y0195D03*
X0222D03*
Y0005D03*
X0005D03*
G54D16*
X00165Y01485D03*
Y01435D03*
Y01385D03*
G54D17*
X0202Y00835D03*
Y00579D03*
X02197D03*
Y00835D03*
G54D18*
X02195Y0104D03*
Y0144D03*
X00715Y01485D03*
X00315D03*
X00715Y01605D03*
X00315D03*
X0198Y0154D03*
Y0194D03*
X0197Y0044D03*
Y0004D03*
X02165Y0161D03*
Y01688D03*
X00715Y0137D03*
X00315D03*
X0062Y01755D03*
X0052D03*
X0042D03*
G54D19*
X0085Y00225D03*
Y00325D03*
Y00425D03*
Y00525D03*
Y00625D03*
Y00725D03*
Y00825D03*
Y00925D03*
Y01025D03*
Y01125D03*
Y01225D03*
Y01325D03*
Y01425D03*
X0185Y00325D03*
Y00425D03*
Y00525D03*
Y00625D03*
Y00725D03*
Y00825D03*
Y00925D03*
Y01025D03*
Y01125D03*
Y01225D03*
Y01325D03*
Y01425D03*
X0085Y01625D03*
X0185D03*
Y00225D03*
G54D20*
X0085Y01525D03*
X0185D03*
G54D21*
X0214Y00285D03*
G54D22*
X0214Y00385D03*
G54D23*
X00652Y00569D03*
X0018D03*
G54D24*
X0018Y0105D03*
X00652D03*
G54D25*
X00416Y01128D03*
G54D26*
X0032Y01755D03*
G54D27*
X0041Y0021D03*
X00212D03*
X00605D03*
G54D28*
X0157Y01925D03*
M02*