%FSTAX23Y23*%
%MOIN*%
%SFA1B1*%

%IPPOS*%
%ADD10C,0.007870*%
%ADD11C,0.009840*%
%ADD12C,0.010000*%
%ADD13C,0.008000*%
%LNboard-1*%
%LPD*%
G54D10*
X00105Y01357D02*
X00114Y01351D01*
X00123Y01346*
X00132Y01342*
X00142Y01339*
X00152Y01338*
X00162Y01337*
X00172Y01337*
X00182Y01338*
X00192Y01341*
X00201Y01344*
X0021Y01348*
X00219Y01353*
X00227Y01359*
X00234Y01366*
X00241Y01374*
X00247Y01382*
X00252Y01391*
X00256Y014*
X00259Y0141*
X00261Y01419*
X00262Y01429*
Y0144*
X00261Y0145*
X00259Y01459*
X00256Y01469*
X00252Y01478*
X00247Y01487*
X00241Y01495*
X00234Y01503*
X00227Y0151*
X00219Y01516*
X0021Y01521*
X00201Y01525*
X00192Y01528*
X00182Y01531*
X00172Y01532*
X00162Y01532*
X00152Y01531*
X00142Y0153*
X00132Y01527*
X00123Y01523*
X00114Y01518*
X00105Y01512*
Y01357D02*
Y01512D01*
G54D11*
X00116Y01546D02*
X00109Y0155D01*
Y01542*
X00116Y01546*
G54D12*
X02181Y00235D02*
X0219Y0024D01*
X02198Y00245*
X02207Y00251*
X02214Y00257*
X02221Y00265*
X02227Y00272*
X02233Y00281*
X02237Y0029*
X02241Y00299*
X02244Y00309*
X02246Y00319*
X02247Y00329*
X02247Y00339*
X02246Y00349*
X02244Y00358*
X02241Y00368*
X02238Y00377*
X02233Y00386*
X02228Y00395*
X02222Y00403*
X02215Y0041*
X02208Y00417*
X022Y00423*
X02192Y00428*
X02183Y00433*
X02173Y00436*
X02164Y00439*
X02154Y00441*
X02144Y00442*
X02134Y00442*
X02124Y00441*
X02114Y00439*
X02104Y00436*
X02095Y00432*
X02086Y00428*
X02078Y00422*
X0207Y00416*
X02062Y00409*
X02056Y00402*
X0205Y00394*
X02045Y00385*
X0204Y00376*
X02037Y00367*
X02035Y00357*
X02033Y00347*
X02032Y00337*
X02032Y00327*
X02034Y00317*
X02036Y00307*
X02039Y00298*
X02043Y00288*
X02047Y0028*
X02053Y00271*
X02059Y00263*
X02066Y00256*
X02074Y0025*
X02082Y00244*
X02091Y00239*
X021Y00235*
X021Y00235D02*
X0218D01*
X00106Y01203D02*
X0046D01*
X00726*
Y00433D02*
Y01203D01*
X00106Y00433D02*
X00726D01*
X00106D02*
Y01203D01*
X02058Y01759D02*
X02227D01*
Y01539D02*
Y01759D01*
X02058Y01539D02*
X02227D01*
X02058D02*
Y01759D01*
X0077Y0167D02*
Y01985D01*
X00175D02*
X0077D01*
X00175Y0167D02*
Y01985D01*
Y0167D02*
X0077D01*
X01592Y00465D02*
X01552D01*
X01566Y00478*
X01552Y00491*
X01592*
Y00511D02*
Y00524D01*
X01586Y00531*
X01572*
X01566Y00524*
Y00511*
X01572Y00504*
X01586*
X01592Y00511*
X01559Y00551D02*
X01566D01*
Y00544*
Y00558*
Y00551*
X01586*
X01592Y00558*
Y00584D02*
Y00598D01*
X01586Y00604*
X01572*
X01566Y00598*
Y00584*
X01572Y00578*
X01586*
X01592Y00584*
X01566Y00618D02*
X01592D01*
X01579*
X01572Y00624*
X01566Y00631*
Y00638*
X01559Y00724D02*
X01552Y00718D01*
Y00704*
X01559Y00698*
X01586*
X01592Y00704*
Y00718*
X01586Y00724*
X01592Y00744D02*
Y00758D01*
X01586Y00764*
X01572*
X01566Y00758*
Y00744*
X01572Y00738*
X01586*
X01592Y00744*
Y00778D02*
X01566D01*
Y00798*
X01572Y00804*
X01592*
X01559Y00824D02*
X01566D01*
Y00818*
Y00831*
Y00824*
X01586*
X01592Y00831*
X01566Y00851D02*
X01592D01*
X01579*
X01572Y00858*
X01566Y00864*
Y00871*
X01592Y00898D02*
Y00911D01*
X01586Y00918*
X01572*
X01566Y00911*
Y00898*
X01572Y00891*
X01586*
X01592Y00898*
Y00931D02*
Y00944D01*
Y00938*
X01552*
Y00931*
Y01004D02*
X01592D01*
Y01024*
X01586Y01031*
X01579*
X01572Y01024*
Y01004*
Y01024*
X01566Y01031*
X01559*
X01552Y01024*
Y01004*
X01592Y01051D02*
Y01064D01*
X01586Y01071*
X01572*
X01566Y01064*
Y01051*
X01572Y01044*
X01586*
X01592Y01051*
X01566Y01091D02*
Y01104D01*
X01572Y01111*
X01592*
Y01091*
X01586Y01084*
X01579Y01091*
Y01111*
X01566Y01124D02*
X01592D01*
X01579*
X01572Y01131*
X01566Y01138*
Y01144*
X01552Y01191D02*
X01592D01*
Y01171*
X01586Y01164*
X01572*
X01566Y01171*
Y01191*
X01624Y00465D02*
X01651D01*
X01664Y00478*
X01651Y00491*
X01624*
X01664Y00524D02*
Y00511D01*
X01658Y00504*
X01644*
X01638Y00511*
Y00524*
X01644Y00531*
X01651*
Y00504*
X01638Y00544D02*
X01664D01*
X01651*
X01644Y00551*
X01638Y00558*
Y00564*
X01664Y00584D02*
Y00604D01*
X01658Y00611*
X01651Y00604*
Y00591*
X01644Y00584*
X01638Y00591*
Y00611*
X01664Y00624D02*
Y00638D01*
Y00631*
X01638*
Y00624*
X01664Y00664D02*
Y00678D01*
X01658Y00684*
X01644*
X01638Y00678*
Y00664*
X01644Y00658*
X01658*
X01664Y00664*
Y00698D02*
X01638D01*
Y00718*
X01644Y00724*
X01664*
Y00778D02*
Y00791D01*
Y00784*
X01624*
X01631Y00778*
X01664Y00811D02*
X01658D01*
Y00818*
X01664*
Y00811*
X01631Y00844D02*
X01624Y00851D01*
Y00864*
X01631Y00871*
X01658*
X01664Y00864*
Y00851*
X01658Y00844*
X01631*
X01696Y00465D02*
X01736D01*
Y00484*
X0173Y00491*
X01703*
X01696Y00484*
Y00465*
X01736Y00524D02*
Y00511D01*
X0173Y00504*
X01716*
X0171Y00511*
Y00524*
X01716Y00531*
X01723*
Y00504*
X01736Y00544D02*
Y00564D01*
X0173Y00571*
X01723Y00564*
Y00551*
X01716Y00544*
X0171Y00551*
Y00571*
X01736Y00584D02*
Y00598D01*
Y00591*
X0171*
Y00584*
X0175Y00631D02*
Y00638D01*
X01743Y00644*
X0171*
Y00624*
X01716Y00618*
X0173*
X01736Y00624*
Y00644*
Y00658D02*
X0171D01*
Y00678*
X01716Y00684*
X01736*
Y00718D02*
Y00704D01*
X0173Y00698*
X01716*
X0171Y00704*
Y00718*
X01716Y00724*
X01723*
Y00698*
X01696Y00764D02*
X01736D01*
Y00744*
X0173Y00738*
X01716*
X0171Y00744*
Y00764*
X01696Y00818D02*
X01736D01*
Y00838*
X0173Y00844*
X01723*
X01716*
X0171Y00838*
Y00818*
Y00858D02*
X0173D01*
X01736Y00864*
Y00884*
X01743*
X0175Y00878*
Y00871*
X01736Y00884D02*
X0171D01*
X01703Y00964D02*
X01696Y00958D01*
Y00944*
X01703Y00938*
X0173*
X01736Y00944*
Y00958*
X0173Y00964*
X01736Y00978D02*
Y00991D01*
Y00984*
X01696*
Y00978*
X0171Y01018D02*
Y01031D01*
X01716Y01038*
X01736*
Y01018*
X0173Y01011*
X01723Y01018*
Y01038*
X0171Y01051D02*
X0173D01*
X01736Y01058*
Y01078*
X0171*
X01696Y01118D02*
X01736D01*
Y01098*
X0173Y01091*
X01716*
X0171Y01098*
Y01118*
X01736Y01131D02*
Y01144D01*
Y01138*
X0171*
Y01131*
X01736Y01171D02*
Y01184D01*
X0173Y01191*
X01716*
X0171Y01184*
Y01171*
X01716Y01164*
X0173*
X01736Y01171*
Y01244D02*
X01696D01*
Y01264*
X01703Y01271*
X01716*
X01723Y01264*
Y01244*
Y01258D02*
X01736Y01271D01*
Y01304D02*
Y01291D01*
X0173Y01284*
X01716*
X0171Y01291*
Y01304*
X01716Y01311*
X01723*
Y01284*
X0175Y01338D02*
Y01344D01*
X01743Y01351*
X0171*
Y01331*
X01716Y01324*
X0173*
X01736Y01331*
Y01351*
Y01364D02*
Y01378D01*
Y01371*
X0171*
Y01364*
X01736Y01398D02*
Y01418D01*
X0173Y01424*
X01723Y01418*
Y01404*
X01716Y01398*
X0171Y01404*
Y01424*
X02188Y00931D02*
X02181Y00938D01*
X02168*
X02162Y00931*
Y00925*
X02168Y00918*
X02181*
X02188Y00912*
Y00905*
X02181Y00899*
X02168*
X02162Y00905*
X02201Y00899D02*
X02214D01*
X02208*
Y00938*
X02201Y00931*
X02165Y01345D02*
Y01384D01*
X02184*
X02191Y01377*
Y01364*
X02184Y01358*
X02165*
X02178D02*
X02191Y01345D01*
X0223Y01384D02*
X02204D01*
Y01364*
X02217Y01371*
X02224*
X0223Y01364*
Y01351*
X02224Y01345*
X0221*
X02204Y01351*
X02064Y01835D02*
X0209D01*
X02077*
Y01796*
X02129D02*
X02103D01*
X02129Y01822*
Y01828*
X02123Y01835*
X02109*
X02103Y01828*
X00385Y00354D02*
X00411D01*
X00398*
Y00315*
X00424D02*
X00437D01*
X0043*
Y00354*
X00424Y00347*
X0193Y0033D02*
Y00369D01*
X01949*
X01956Y00362*
Y00349*
X01949Y00343*
X0193*
X01943D02*
X01956Y0033D01*
X01989D02*
Y00369D01*
X01969Y00349*
X01995*
X0212Y00204D02*
Y00165D01*
X02146*
X02159D02*
X02172D01*
X02165*
Y00204*
X02159Y00197*
X0021Y01938D02*
Y01902D01*
X00217Y01895*
X00231*
X00238Y01902*
Y01938*
X00282Y01895D02*
X00253D01*
X00282Y01923*
Y01931*
X00274Y01938*
X0026*
X00253Y01931*
X0092Y01739D02*
Y01706D01*
X00926Y017*
X00939*
X00946Y01706*
Y01739*
X00959Y017D02*
X00972D01*
X00965*
Y01739*
X00959Y01732*
X00345Y0096D02*
Y00999D01*
X00364*
X00371Y00992*
Y00979*
X00364Y00973*
X00345*
X00358D02*
X00371Y0096D01*
X00384Y00999D02*
Y0096D01*
X0041*
X00423Y00999D02*
Y00992D01*
X00436Y00979*
X00449Y00992*
Y00999*
X00436Y00979D02*
Y0096D01*
X00463D02*
X00476D01*
X00469*
Y00999*
X00463Y00992*
X0195Y01835D02*
Y01874D01*
X01969*
X01976Y01867*
Y01854*
X01969Y01848*
X0195*
X01963D02*
X01976Y01835D01*
X01989Y01867D02*
X01995Y01874D01*
X02009*
X02015Y01867*
Y01861*
X02009Y01854*
X02002*
X02009*
X02015Y01848*
Y01841*
X02009Y01835*
X01995*
X01989Y01841*
X00377Y01575D02*
Y01618D01*
X00399*
X00406Y01611*
Y01596*
X00399Y01589*
X00377*
X00392D02*
X00406Y01575D01*
X00449D02*
X00421D01*
X00449Y01603*
Y01611*
X00442Y01618*
X00428*
X00421Y01611*
X00385Y01455D02*
Y01498D01*
X00406*
X00413Y01491*
Y01476*
X00406Y01469*
X00385*
X00399D02*
X00413Y01455D01*
X00428D02*
X00442D01*
X00435*
Y01498*
X00428Y01491*
X00183Y01562D02*
Y01591D01*
X00176Y01598*
X00162*
X00155Y01591*
Y01562*
X00162Y01555*
X00176*
X00169Y01569D02*
X00183Y01555D01*
X00176D02*
X00183Y01562D01*
X00198Y01555D02*
X00212D01*
X00205*
Y01598*
X00198Y01591*
X00385Y01383D02*
Y0134D01*
X00406*
X00413Y01347*
Y01376*
X00406Y01383*
X00385*
X00428Y0134D02*
X00442D01*
X00435*
Y01383*
X00428Y01376*
G54D13*
X0013Y01289D02*
Y01255D01*
Y01289D02*
X00145D01*
X0015Y01288*
X00151Y01286*
X00153Y01283*
Y01279*
X00151Y01276*
X0015Y01275*
X00145Y01273*
X0013*
X00141D02*
X00153Y01255D01*
X00161Y01289D02*
Y01255D01*
X00181*
X00184Y01289D02*
X00198Y01273D01*
Y01255*
X00211Y01289D02*
X00198Y01273D01*
X02063Y01454D02*
X0206Y01458D01*
X02055Y01459*
X02048*
X02043Y01458*
X0204Y01454*
Y01451*
X02041Y01448*
X02043Y01446*
X02046Y01445*
X02056Y01441*
X0206Y0144*
X02061Y01438*
X02063Y01435*
Y0143*
X0206Y01426*
X02055Y01425*
X02048*
X02043Y01426*
X0204Y0143*
X02071Y01459D02*
X02079Y01425D01*
X02087Y01459D02*
X02079Y01425D01*
X02087Y01459D02*
X02096Y01425D01*
X02104Y01459D02*
X02096Y01425D01*
X0183Y01954D02*
X01843Y0192D01*
X01856Y01954D02*
X01843Y0192D01*
X01861Y01954D02*
Y0192D01*
X01868Y01954D02*
Y0192D01*
Y01954D02*
X01891Y0192D01*
Y01954D02*
Y0192D01*
X00055Y01786D02*
X00053Y01789D01*
X0005Y01793*
X00046Y01794*
X0004*
X00036Y01793*
X00033Y01789*
X00031Y01786*
X0003Y01781*
Y01773*
X00031Y01768*
X00033Y01765*
X00036Y01761*
X0004Y0176*
X00046*
X0005Y01761*
X00053Y01765*
X00055Y01768*
Y01773*
X00046D02*
X00055D01*
X00062Y01794D02*
Y0176D01*
Y01794D02*
X00086Y0176D01*
Y01794D02*
Y0176D01*
X00095Y01794D02*
Y0176D01*
Y01794D02*
X00107D01*
X00112Y01793*
X00115Y01789*
X00117Y01786*
X00119Y01781*
Y01773*
X00117Y01768*
X00115Y01765*
X00112Y01761*
X00107Y0176*
X00095*
X01023Y01954D02*
X01041D01*
X01031Y01941*
X01036*
X0104Y0194*
X01041Y01938*
X01043Y01933*
Y0193*
X01041Y01925*
X01038Y01921*
X01033Y0192*
X01028*
X01023Y01921*
X01021Y01923*
X0102Y01926*
X01051Y01954D02*
X01064Y0192D01*
X01077Y01954D02*
X01064Y0192D01*
X01085Y01954D02*
X01103D01*
X01093Y01941*
X01098*
X01102Y0194*
X01103Y01938*
X01105Y01933*
Y0193*
X01103Y01925*
X011Y01921*
X01095Y0192*
X0109*
X01085Y01921*
X01083Y01923*
X01082Y01926*
M02*